<svg width="595" height="842" viewBox="0 0 595 842" fill="none" xmlns="http://www.w3.org/2000/svg">
<path d="M-2 0H498L361.783 55.1607V55.1607C254.243 95.5779 137.533 105.069 24.8755 82.56L-2 77.1902V0Z" fill="#4FB8CF"/>
<path d="M0 0H498L421.631 19.5412L302.947 47.666V47.666C213.482 64.901 121.713 66.5652 31.6814 52.5854L0 47.666V0Z" fill="#28536B"/>
<path d="M594.512 842.408H160L282.905 824.551L437.414 803.079C489.978 795.774 543.489 799.54 594.512 814.135V814.135L594.512 842.408Z" fill="#4FB8CF"/>
<path d="M594.338 842.408H258.667L334.812 836.27L418.735 830.718C465.755 827.608 512.972 829.469 559.602 836.27V836.27L594.338 842.408Z" fill="#28536B"/>
</svg>
